<svg width="107" height="111" viewBox="0 0 107 111" fill="none" xmlns="http://www.w3.org/2000/svg">
<path d="M35.2254 22.9531L0.150097 101.812L0.184018 101.847C-0.457394 103.113 0.615737 105.691 2.81442 107.935C5.0131 110.176 7.54174 111.269 8.78448 110.616L8.81532 110.647L88.0636 74.1904C80.5545 77.0744 67.782 68.8529 53.3719 54.4428C40.0289 40.5658 34.6917 28.824 35.2254 22.9531Z" fill="url(#paint0_linear_2_2970)"/>
<path opacity="0.35" d="M70.6992 38.7179C85.1002 53.4021 93.0962 69.0543 88.5508 73.6808C84.0085 78.3136 68.6517 70.1669 54.2415 55.489C39.8375 40.8049 31.8445 25.1464 36.3868 20.5168C40.9322 15.8871 56.2891 24.0338 70.6992 38.7179Z" fill="url(#paint1_linear_2_2970)"/>
<path fill-rule="evenodd" clip-rule="evenodd" d="M87.4673 48.8505C92.1677 49.0969 98.6121 50.0825 104.215 53.4296C105.351 54.0996 106.186 55.1775 106.547 56.4413C106.908 57.705 106.769 59.0585 106.157 60.223C105.545 61.3874 104.508 62.2742 103.259 62.7008C102.01 63.1273 100.644 63.0611 99.4428 62.5158L98.9062 62.2335C95.3873 60.1287 90.8881 59.3074 86.9255 59.102C85.2928 59.0081 83.6558 59.0149 82.0239 59.1226L80.3934 59.2817C79.0475 59.4545 77.6873 59.0928 76.6075 58.2748C75.5277 57.4569 74.8153 56.2486 74.6246 54.9118C74.4339 53.5749 74.7803 52.2172 75.5887 51.1326C76.3971 50.048 77.6024 49.324 78.9436 49.1174C81.7694 48.7543 84.6239 48.6631 87.4673 48.8454V48.8505ZM97.9156 34.5486C99.2302 34.5514 100.494 35.0533 101.45 35.9519C102.405 36.8505 102.979 38.078 103.056 39.3838C103.132 40.6896 102.705 41.9751 101.861 42.9779C101.017 43.9807 99.8195 44.6252 98.5141 44.7796L97.9156 44.8156H94.2625C92.9479 44.8128 91.6839 44.3109 90.7286 43.4123C89.7733 42.5137 89.1988 41.2862 89.1224 39.9804C89.0461 38.6746 89.4735 37.3891 90.3176 36.3863C91.1616 35.3835 92.3586 34.739 93.664 34.5846L94.2625 34.5486H97.9156ZM81.4976 30.6061C82.386 31.4901 82.9196 32.6661 82.9985 33.9137C83.0773 35.1613 82.6959 36.3946 81.9259 37.3823L81.4976 37.8649L76.0284 43.3115C75.102 44.2419 73.8532 44.7849 72.5376 44.8294C71.2221 44.8738 69.9391 44.4162 68.9515 43.5504C67.9639 42.6845 67.3462 41.4758 67.225 40.1717C67.1037 38.8676 67.488 37.5667 68.2992 36.5353L68.7275 36.0527L74.1967 30.6113C74.6759 30.134 75.245 29.7553 75.8713 29.497C76.4977 29.2386 77.1691 29.1057 77.8472 29.1057C78.5252 29.1057 79.1966 29.2386 79.823 29.497C80.4494 29.7553 81.0184 30.1288 81.4976 30.6061ZM68.1496 3.57324C70.4611 10.4829 69.2228 18.0496 67.7781 23.3371C66.9099 26.6336 65.7174 29.8369 64.218 32.9008C63.607 34.1193 62.5345 35.0464 61.2364 35.4782C59.9383 35.91 58.5211 35.8111 57.2963 35.2031C56.0716 34.5952 55.1397 33.5282 54.7057 32.2367C54.2718 30.9452 54.3712 29.5351 54.9822 28.3166C56.1787 25.8554 57.1292 23.2831 57.82 20.6369C58.9913 16.3659 59.5795 11.7303 58.6765 7.93156L58.3618 6.82273C58.1369 6.18073 58.0425 5.50069 58.0839 4.82208C58.1254 4.14348 58.3019 3.47982 58.6032 2.86964C58.9046 2.25946 59.3247 1.71491 59.8393 1.2676C60.3539 0.820295 60.9527 0.479142 61.6009 0.263947C62.2491 0.0487523 62.9338 -0.0361977 63.6152 0.0140283C64.2967 0.0642542 64.9613 0.248657 65.5706 0.556529C66.1798 0.864401 66.7215 1.28961 67.1643 1.80747C67.607 2.32534 67.9419 2.92554 68.1496 3.57324ZM96.0891 16.0887C97.0563 17.0513 97.5997 18.3568 97.5997 19.718C97.5997 21.0792 97.0563 22.3847 96.0891 23.3474L92.4412 26.9768C91.9652 27.4671 91.3959 27.8581 90.7664 28.1272C90.1369 28.3962 89.4599 28.5378 88.7748 28.5437C88.0897 28.5497 87.4102 28.4198 86.7761 28.1617C86.142 27.9036 85.566 27.5224 85.0815 27.0404C84.5971 26.5584 84.2139 25.9852 83.9545 25.3543C83.6951 24.7235 83.5645 24.0475 83.5705 23.3659C83.5764 22.6842 83.7188 22.0106 83.9892 21.3843C84.2596 20.758 84.6527 20.1916 85.1455 19.718L88.7933 16.0887C89.7609 15.1263 91.073 14.5856 92.4412 14.5856C93.8093 14.5856 95.1215 15.1263 96.0891 16.0887Z" fill="url(#paint2_linear_2_2970)"/>
<defs>
<linearGradient id="paint0_linear_2_2970" x1="88.0636" y1="66.8781" x2="4.30342e-08" y2="66.8781" gradientUnits="userSpaceOnUse">
<stop stop-color="#64589A"/>
<stop offset="1" stop-color="#1F1646"/>
</linearGradient>
<linearGradient id="paint1_linear_2_2970" x1="130.762" y1="54.9779" x2="94.6128" y2="94.6225" gradientUnits="userSpaceOnUse">
<stop offset="0.601144" stop-color="#3BD4AE"/>
<stop offset="0.926207" stop-color="#1F1646"/>
</linearGradient>
<linearGradient id="paint2_linear_2_2970" x1="106.744" y1="31.4893" x2="54.4395" y2="31.4893" gradientUnits="userSpaceOnUse">
<stop stop-color="#64589A"/>
<stop offset="1" stop-color="#1F1646"/>
</linearGradient>
</defs>
</svg>
