<svg width="214" height="32" viewBox="0 0 214 32" fill="none" xmlns="http://www.w3.org/2000/svg">
<path d="M36.9275 23.0015L38.1042 21.1897C38.427 20.6934 38.8353 20.5973 39.1422 20.7948C40.7698 21.8621 42.4376 22.3958 43.8304 22.3958C45.2233 22.3958 45.8103 21.9021 45.8103 21.1603V21.0963C45.8103 20.077 44.2093 19.7354 42.3762 19.1777C40.0547 18.4973 37.4264 17.414 37.4264 14.196V14.1346C37.4264 10.7618 40.1481 8.87267 43.4915 8.87267C45.4794 8.90187 47.4257 9.44615 49.1404 10.4523C49.2875 10.5407 49.3944 10.6828 49.4387 10.8486C49.483 11.0144 49.4612 11.1909 49.3779 11.3409L48.2038 13.4755C48.1202 13.6283 47.9798 13.742 47.813 13.792C47.6462 13.8419 47.4664 13.8241 47.3126 13.7424C45.869 12.9739 44.4655 12.5149 43.3981 12.5149C42.2534 12.5149 41.6637 13.0112 41.6637 13.6596V13.7237C41.6637 14.6496 43.2434 15.0845 45.0392 15.7036C47.3579 16.4774 50.0503 17.5901 50.0503 20.624V20.6854C50.0503 24.3677 47.2966 26.038 43.7077 26.038C41.3365 26.0183 39.0282 25.2734 37.0929 23.9034C36.9536 23.8039 36.8585 23.6542 36.8276 23.4859C36.7967 23.3176 36.8326 23.1439 36.9275 23.0015Z" fill="#1F1646"/>
<path d="M56.7207 9.12875H53.3346C52.9706 9.12875 52.6755 9.42383 52.6755 9.78783V25.056C52.6755 25.42 52.9706 25.7151 53.3346 25.7151H56.7207C57.0847 25.7151 57.3798 25.42 57.3798 25.056V9.78783C57.3798 9.42383 57.0847 9.12875 56.7207 9.12875Z" fill="#1F1646"/>
<path d="M61.3287 9.12926H64.7122C64.887 9.12926 65.0546 9.1987 65.1782 9.3223C65.3018 9.4459 65.3712 9.61353 65.3712 9.78833C65.3711 9.91542 65.4077 10.0399 65.4766 10.1466C65.5456 10.2534 65.6439 10.338 65.7598 10.3901C65.8757 10.4423 66.0042 10.4599 66.1298 10.4407C66.2555 10.4215 66.3729 10.3664 66.4679 10.282C67.4954 9.32127 68.8558 8.79702 70.2623 8.81974C72.1301 8.81974 73.5897 9.52417 74.5156 10.7783C74.5707 10.8528 74.6412 10.9146 74.7222 10.9595C74.8033 11.0043 74.8931 11.0312 74.9855 11.0383C75.0779 11.0454 75.1707 11.0325 75.2577 11.0005C75.3447 10.9686 75.4237 10.9182 75.4895 10.853C76.1228 10.1981 76.8834 9.67979 77.7246 9.3301C78.5658 8.98041 79.4697 8.80673 80.3806 8.81974C83.8788 8.81974 85.9841 10.925 85.9841 14.9169V25.0565C85.9844 25.1432 85.9676 25.229 85.9346 25.3091C85.9016 25.3893 85.8531 25.4621 85.7918 25.5233C85.7306 25.5846 85.6578 25.6331 85.5776 25.6661C85.4975 25.6991 85.4116 25.7159 85.325 25.7156H81.9389C81.8522 25.7159 81.7664 25.6991 81.6863 25.6661C81.6061 25.6331 81.5333 25.5846 81.4721 25.5233C81.4108 25.4621 81.3623 25.3893 81.3293 25.3091C81.2963 25.229 81.2795 25.1432 81.2798 25.0565V16.4645C81.2798 14.2364 80.2872 13.0917 78.5234 13.0917C76.7597 13.0917 75.6763 14.2364 75.6763 16.4645V25.0565C75.6767 25.1432 75.6599 25.229 75.6269 25.3091C75.5939 25.3893 75.5453 25.4621 75.4841 25.5233C75.4228 25.5846 75.35 25.6331 75.2699 25.6661C75.1898 25.6991 75.1039 25.7159 75.0173 25.7156H71.6338C71.5472 25.7159 71.4613 25.6991 71.3812 25.6661C71.3011 25.6331 71.2283 25.5846 71.167 25.5233C71.1057 25.4621 71.0572 25.3893 71.0242 25.3091C70.9912 25.229 70.9744 25.1432 70.9747 25.0565V16.4645C70.9747 14.2364 69.9821 13.0917 68.2184 13.0917C66.4546 13.0917 65.3739 14.2364 65.3739 16.4645V25.0565C65.3743 25.1432 65.3575 25.229 65.3245 25.3091C65.2915 25.3893 65.2429 25.4621 65.1817 25.5233C65.1204 25.5846 65.0476 25.6331 64.9675 25.6661C64.8873 25.6991 64.8015 25.7159 64.7148 25.7156H61.3287C61.2421 25.7159 61.1562 25.6991 61.0761 25.6661C60.996 25.6331 60.9232 25.5846 60.8619 25.5233C60.8006 25.4621 60.7521 25.3893 60.7191 25.3091C60.6861 25.229 60.6693 25.1432 60.6697 25.0565V9.78833C60.6697 9.61353 60.7391 9.4459 60.8627 9.3223C60.9863 9.1987 61.1539 9.12926 61.3287 9.12926Z" fill="#1F1646"/>
<path d="M89.5943 9.12858H92.9777C93.1525 9.12858 93.3202 9.19802 93.4438 9.32162C93.5674 9.44522 93.6368 9.61285 93.6368 9.78765V9.82501C93.6373 9.95118 93.6743 10.0745 93.7434 10.1801C93.8125 10.2857 93.9106 10.3691 94.026 10.4201C94.1414 10.4712 94.269 10.4878 94.3936 10.4679C94.5182 10.448 94.6344 10.3924 94.7281 10.308C95.8488 9.31181 97.3065 8.77949 98.8054 8.81906C102.674 8.81906 106.357 11.8529 106.357 17.3924V17.4538C106.357 22.9932 102.736 26.0244 98.8054 26.0244C97.3142 26.0637 95.8586 25.5656 94.7041 24.6209C94.6091 24.5419 94.4936 24.4916 94.3711 24.4758C94.2486 24.46 94.1241 24.4794 94.0121 24.5317C93.9002 24.584 93.8055 24.6671 93.739 24.7713C93.6726 24.8754 93.6371 24.9963 93.6368 25.1199V31.1556C93.6368 31.3304 93.5674 31.4981 93.4438 31.6217C93.3202 31.7453 93.1525 31.8147 92.9777 31.8147H89.5943C89.4192 31.8147 89.2513 31.7454 89.1273 31.6218C89.0033 31.4983 88.9332 31.3307 88.9325 31.1556V9.78765C88.9332 9.6126 89.0033 9.44498 89.1273 9.32146C89.2513 9.19793 89.4192 9.12858 89.5943 9.12858ZM101.663 17.4538V17.3924C101.663 14.636 99.7953 12.8109 97.6099 12.8109C95.4246 12.8109 93.5861 14.636 93.5861 17.3924V17.4538C93.5861 20.2075 95.4112 22.0326 97.6099 22.0326C99.8086 22.0326 101.663 20.2395 101.663 17.4538Z" fill="#1F1646"/>
<path d="M109.565 3.12541H112.948C113.035 3.12541 113.121 3.14253 113.201 3.17579C113.282 3.20904 113.355 3.25779 113.416 3.31923C113.477 3.38068 113.526 3.45363 113.559 3.53392C113.593 3.6142 113.61 3.70026 113.61 3.78716V25.0564C113.61 25.1432 113.593 25.2291 113.559 25.3092C113.526 25.3894 113.477 25.4622 113.416 25.5234C113.354 25.5846 113.281 25.6331 113.201 25.6661C113.121 25.699 113.035 25.7158 112.948 25.7155H109.565C109.39 25.7155 109.222 25.646 109.099 25.5224C108.975 25.3988 108.906 25.2312 108.906 25.0564V3.78716C108.906 3.61212 108.975 3.4442 109.098 3.32017C109.222 3.19615 109.39 3.12612 109.565 3.12541Z" fill="#1F1646"/>
<path d="M116.094 17.5151V17.4537C116.094 12.7175 119.466 8.81903 124.293 8.81903C129.833 8.81903 132.37 13.1204 132.37 17.8246C132.37 18.0168 132.37 18.2249 132.349 18.441C132.34 18.6093 132.266 18.7674 132.143 18.8831C132.021 18.9987 131.859 19.063 131.69 19.0627H121.676C121.566 19.0631 121.458 19.0907 121.362 19.143C121.265 19.1952 121.183 19.2706 121.123 19.3623C121.063 19.454 121.026 19.5592 121.016 19.6685C121.007 19.7778 121.024 19.8878 121.067 19.9886C121.721 21.5176 123.055 22.3127 124.83 22.3127C126.154 22.3398 127.438 21.8629 128.424 20.9786C128.546 20.8796 128.698 20.8255 128.855 20.8255C129.012 20.8255 129.164 20.8796 129.286 20.9786L131.052 22.5396C131.119 22.5988 131.173 22.6708 131.211 22.7515C131.25 22.8321 131.271 22.9195 131.275 23.0087C131.279 23.0978 131.265 23.1868 131.233 23.2704C131.202 23.3539 131.154 23.4302 131.092 23.4948C129.574 25.0958 127.487 26.0698 124.768 26.0698C119.776 26.0858 116.094 22.5903 116.094 17.5151ZM126.98 16.1222C127.083 16.1222 127.184 16.0982 127.276 16.0523C127.368 16.0064 127.447 15.9398 127.509 15.8578C127.571 15.7758 127.612 15.6805 127.631 15.5796C127.649 15.4787 127.644 15.3749 127.615 15.2764C127.149 13.646 125.996 12.5947 124.293 12.5947C122.591 12.5947 121.452 13.6193 120.918 15.263C120.885 15.3622 120.876 15.4679 120.892 15.5712C120.908 15.6745 120.948 15.7726 121.009 15.8573C121.071 15.9421 121.151 16.011 121.244 16.0584C121.337 16.1059 121.441 16.1305 121.545 16.1302L126.98 16.1222Z" fill="#1F1646"/>
<path d="M134.337 23.0015L135.514 21.1897C135.839 20.6934 136.248 20.5973 136.554 20.7948C138.182 21.8621 139.85 22.3958 141.243 22.3958C142.635 22.3958 143.223 21.9022 143.223 21.1604V21.0963C143.223 20.077 141.622 19.7355 139.788 19.1778C137.467 18.4974 134.836 17.414 134.836 14.196V14.1347C134.836 10.7619 137.56 8.87271 140.901 8.87271C142.89 8.90158 144.837 9.44587 146.553 10.4524C146.7 10.5407 146.807 10.683 146.85 10.849C146.894 11.0149 146.872 11.1914 146.787 11.3409L145.616 13.4756C145.532 13.6284 145.392 13.7421 145.225 13.792C145.058 13.842 144.879 13.8242 144.725 13.7424C143.281 12.9739 141.875 12.515 140.81 12.515C139.663 12.515 139.076 13.0113 139.076 13.6597V13.7237C139.076 14.6496 140.656 15.0846 142.449 15.7036C144.77 16.4775 147.462 17.5901 147.462 20.624V20.6854C147.462 24.3677 144.709 26.0381 141.12 26.0381C138.749 26.0187 136.44 25.2738 134.505 23.9034C134.365 23.8044 134.27 23.6549 134.238 23.4865C134.207 23.3182 134.242 23.1442 134.337 23.0015Z" fill="#1F1646"/>
<path d="M150.165 21.0137V13.8092C150.164 13.6341 150.094 13.4665 149.97 13.343C149.846 13.2194 149.678 13.1501 149.503 13.1501H148.844C148.758 13.1501 148.672 13.133 148.591 13.0997C148.511 13.0664 148.439 13.0176 148.377 12.9561C148.316 12.8946 148.268 12.8216 148.235 12.7414C148.202 12.6611 148.185 12.5751 148.185 12.4884V9.78799C148.185 9.70144 148.202 9.61575 148.235 9.53579C148.269 9.45582 148.317 9.38316 148.378 9.32196C148.439 9.26076 148.512 9.21221 148.592 9.17909C148.672 9.14596 148.758 9.12892 148.844 9.12892H149.503C149.678 9.12892 149.846 9.05957 149.97 8.93605C150.094 8.81252 150.164 8.64489 150.165 8.46985V5.4493C150.165 5.30068 150.224 5.15816 150.329 5.05307C150.434 4.94798 150.577 4.88895 150.725 4.88895H154.309C154.458 4.88895 154.6 4.94798 154.705 5.05307C154.81 5.15816 154.869 5.30068 154.869 5.4493V8.46985C154.869 8.64464 154.939 8.81228 155.062 8.93588C155.186 9.05948 155.354 9.12892 155.528 9.12892H158.109C158.283 9.12963 158.451 9.1993 158.574 9.32275C158.697 9.44619 158.767 9.61341 158.768 9.78799V12.491C158.768 12.6661 158.698 12.834 158.575 12.958C158.451 13.082 158.284 13.1521 158.109 13.1528H155.528C155.354 13.1528 155.186 13.2222 155.062 13.3458C154.939 13.4694 154.869 13.637 154.869 13.8118V20.2398C154.869 21.3232 155.334 21.8408 156.385 21.8408C156.88 21.8415 157.372 21.7669 157.845 21.6194C157.943 21.5864 158.047 21.5772 158.149 21.5925C158.252 21.6078 158.349 21.6472 158.433 21.7073C158.517 21.7675 158.586 21.8468 158.633 21.9386C158.681 22.0305 158.706 22.1323 158.706 22.2358V24.4184C158.706 24.8934 158.56 25.1175 158.336 25.2323C157.3 25.7553 156.152 26.0147 154.992 25.9874C152.116 25.9954 150.165 24.8507 150.165 21.0137Z" fill="#1F1646"/>
<path d="M160.676 20.9499V20.8858C160.676 17.2649 163.43 15.5945 167.36 15.5945C168.741 15.5817 170.113 15.812 171.413 16.275V16.0081C171.413 14.0576 170.207 12.9742 167.856 12.9742C166.511 12.9671 165.174 13.1956 163.907 13.6493C163.825 13.6777 163.737 13.6893 163.65 13.6836C163.563 13.6778 163.478 13.6548 163.399 13.6158C163.321 13.5768 163.251 13.5227 163.194 13.4565C163.137 13.3903 163.094 13.3135 163.067 13.2304L162.288 10.8583C162.239 10.7019 162.251 10.5332 162.321 10.3851C162.39 10.237 162.513 10.1203 162.664 10.0578C164.524 9.29148 166.523 8.91986 168.534 8.96642C171.104 8.96642 172.958 9.64684 174.138 10.8342C175.376 12.0724 175.933 13.9001 175.933 16.1282V25.0911C175.933 25.1779 175.916 25.2638 175.883 25.3439C175.85 25.4241 175.801 25.4969 175.739 25.5581C175.678 25.6193 175.605 25.6678 175.525 25.7008C175.444 25.7338 175.358 25.7505 175.272 25.7502H171.931C171.786 25.7502 171.647 25.6926 171.544 25.59C171.442 25.4874 171.384 25.3483 171.384 25.2032C171.389 25.0986 171.364 24.9948 171.31 24.9047C171.257 24.8146 171.178 24.7421 171.084 24.6963C170.99 24.6506 170.885 24.6335 170.781 24.6472C170.677 24.6609 170.58 24.7049 170.501 24.7736C169.457 25.5741 168.123 26.0597 166.37 26.0597C163.246 26.025 160.676 24.2319 160.676 20.9499ZM171.477 19.8665V19.4769C171.476 19.3393 171.433 19.2053 171.353 19.0931C171.274 18.9809 171.161 18.896 171.032 18.8499C170.212 18.5561 169.347 18.408 168.475 18.4123C166.464 18.4123 165.225 19.2128 165.225 20.7044V20.7658C165.225 22.0332 166.277 22.7777 167.795 22.7777C169.991 22.7777 171.477 21.5689 171.477 19.8665Z" fill="#1F1646"/>
<path d="M179.471 21.0137V13.8092C179.47 13.6341 179.4 13.4665 179.276 13.343C179.152 13.2194 178.984 13.1501 178.809 13.1501H178.15C178.064 13.1501 177.978 13.133 177.898 13.0997C177.817 13.0664 177.745 13.0176 177.683 12.9561C177.622 12.8946 177.574 12.8216 177.541 12.7414C177.508 12.6611 177.491 12.5751 177.491 12.4884V9.78799C177.491 9.70144 177.508 9.61575 177.541 9.53579C177.575 9.45582 177.623 9.38316 177.684 9.32196C177.746 9.26076 177.818 9.21221 177.898 9.17909C177.978 9.14596 178.064 9.12892 178.15 9.12892H178.809C178.984 9.12892 179.152 9.05957 179.276 8.93605C179.4 8.81252 179.47 8.64489 179.471 8.46985V5.4493C179.471 5.30068 179.53 5.15816 179.635 5.05307C179.74 4.94798 179.883 4.88895 180.032 4.88895H183.615C183.764 4.88895 183.906 4.94798 184.011 5.05307C184.116 5.15816 184.175 5.30068 184.175 5.4493V8.46985C184.176 8.64443 184.246 8.81165 184.369 8.9351C184.493 9.05855 184.66 9.12822 184.835 9.12892H187.415C187.589 9.12963 187.757 9.1993 187.88 9.32275C188.003 9.44619 188.073 9.61341 188.074 9.78799V12.491C188.074 12.6661 188.005 12.834 187.881 12.958C187.757 13.082 187.59 13.1521 187.415 13.1528H184.835C184.66 13.1535 184.493 13.2231 184.369 13.3466C184.246 13.47 184.176 13.6373 184.175 13.8118V20.2398C184.175 21.3232 184.64 21.8408 185.691 21.8408C186.186 21.8415 186.678 21.7669 187.151 21.6194C187.249 21.5864 187.353 21.5772 187.455 21.5925C187.558 21.6078 187.655 21.6472 187.739 21.7073C187.823 21.7675 187.892 21.8468 187.939 21.9386C187.987 22.0305 188.012 22.1323 188.012 22.2358V24.4184C188.012 24.8934 187.866 25.1175 187.642 25.2323C186.606 25.7553 185.458 26.0147 184.298 25.9874C181.419 25.9954 179.471 24.8507 179.471 21.0137Z" fill="#1F1646"/>
<path d="M189.718 17.5151V17.4537C189.718 12.7175 193.091 8.81903 197.918 8.81903C203.457 8.81903 205.995 13.1204 205.995 17.8246C205.995 18.0168 205.995 18.2249 205.973 18.441C205.964 18.6093 205.89 18.7674 205.767 18.8831C205.645 18.9987 205.483 19.063 205.314 19.0627H195.276C195.166 19.0631 195.058 19.0907 194.962 19.143C194.865 19.1952 194.783 19.2706 194.723 19.3623C194.663 19.454 194.626 19.5592 194.616 19.6685C194.607 19.7778 194.624 19.8878 194.668 19.9886C195.321 21.5176 196.655 22.3127 198.43 22.3127C199.754 22.3398 201.039 21.8629 202.024 20.9786C202.146 20.8794 202.299 20.8252 202.456 20.8252C202.614 20.8252 202.766 20.8794 202.889 20.9786L204.652 22.5396C204.719 22.5988 204.773 22.6708 204.812 22.7515C204.85 22.8321 204.871 22.9195 204.875 23.0087C204.879 23.0978 204.865 23.1868 204.833 23.2704C204.802 23.3539 204.754 23.4302 204.692 23.4948C203.174 25.0958 201.09 26.0698 198.368 26.0698C193.387 26.0858 189.718 22.5903 189.718 17.5151ZM200.607 16.1222C200.71 16.1217 200.81 16.0975 200.902 16.0514C200.993 16.0054 201.073 15.9387 201.134 15.8567C201.195 15.7748 201.237 15.6797 201.255 15.579C201.273 15.4783 201.268 15.3747 201.24 15.2764C200.773 13.646 199.62 12.5947 197.918 12.5947C196.215 12.5947 195.054 13.6194 194.521 15.255C194.488 15.3542 194.48 15.4597 194.496 15.5628C194.512 15.6659 194.552 15.7637 194.614 15.8482C194.675 15.9328 194.755 16.0017 194.848 16.0493C194.941 16.0969 195.043 16.1219 195.148 16.1222H200.607Z" fill="#1F1646"/>
<path d="M213.149 21.0774H210.171C209.701 21.0774 209.32 21.4585 209.32 21.9286V24.9065C209.32 25.3766 209.701 25.7577 210.171 25.7577H213.149C213.619 25.7577 214 25.3766 214 24.9065V21.9286C214 21.4585 213.619 21.0774 213.149 21.0774Z" fill="#3BD4AE"/>
<path d="M21.8616 23.2075H19.5748C18.9721 23.2075 18.4835 23.6961 18.4835 24.2988V26.5856C18.4835 27.1883 18.9721 27.6769 19.5748 27.6769H21.8616C22.4643 27.6769 22.9529 27.1883 22.9529 26.5856V24.2988C22.9529 23.6961 22.4643 23.2075 21.8616 23.2075Z" fill="#3BD4AE"/>
<path d="M30.5684 18.967C30.5684 19.2565 30.4534 19.5341 30.2487 19.7387C30.044 19.9434 29.7665 20.0584 29.477 20.0584H16.4236C16.1346 20.0591 15.8577 20.1744 15.6536 20.379C15.4495 20.5835 15.3349 20.8607 15.3349 21.1497V26.5851C15.3349 26.8745 15.2199 27.1521 15.0152 27.3568C14.8106 27.5615 14.533 27.6764 14.2435 27.6764H1.09135C0.801902 27.6764 0.524316 27.5615 0.319649 27.3568C0.114982 27.1521 0 26.8745 0 26.5851V24.2983C0 24.0089 0.114982 23.7313 0.319649 23.5266C0.524316 23.322 0.801902 23.207 1.09135 23.207H9.77409C10.0635 23.207 10.3411 23.092 10.5458 22.8874C10.7505 22.6827 10.8654 22.4051 10.8654 22.1156V16.6803C10.8654 16.3908 10.9804 16.1132 11.1851 15.9086C11.3897 15.7039 11.6673 15.5889 11.9568 15.5889H29.477C29.7665 15.5889 30.044 15.7039 30.2487 15.9086C30.4534 16.1132 30.5684 16.3908 30.5684 16.6803V18.967Z" fill="#3BD4AE"/>
<path d="M18.4835 11.3516V9.06219C18.4835 8.77346 18.5982 8.49654 18.8023 8.29238C19.0065 8.08821 19.2834 7.97351 19.5722 7.97351H25.0102C25.2992 7.9728 25.5761 7.85752 25.7802 7.65293C25.9843 7.44833 26.0989 7.17115 26.0989 6.88217V1.44678C26.0989 1.15734 26.2139 0.879754 26.4185 0.675087C26.6232 0.47042 26.9008 0.355438 27.1902 0.355438H29.477C29.7664 0.355438 30.044 0.47042 30.2487 0.675087C30.4533 0.879754 30.5683 1.15734 30.5683 1.44678V11.3516C30.5676 11.6406 30.4523 11.9175 30.2477 12.1216C30.0431 12.3257 29.766 12.4403 29.477 12.4403H19.5722C19.2834 12.4403 19.0065 12.3256 18.8023 12.1214C18.5982 11.9173 18.4835 11.6404 18.4835 11.3516Z" fill="#3BD4AE"/>
<path d="M56.2084 3.0397H53.8015C53.1679 3.0397 52.6542 3.5534 52.6542 4.18708V6.25504C52.6542 6.88872 53.1679 7.40242 53.8015 7.40242H56.2084C56.8421 7.40242 57.3558 6.88872 57.3558 6.25504V4.18708C57.3558 3.5534 56.8421 3.0397 56.2084 3.0397Z" fill="#3BD4AE"/>
</svg>
